<svg xmlns="http://www.w3.org/2000/svg" xmlns:xlink="http://www.w3.org/1999/xlink" width="100" height="100" viewBox="0 0 100 100">
    <defs>
        <radialGradient id="bsgwlpr6la" cx="50%" cy="50%" r="50.375%" fx="50%" fy="50%">
            <stop offset="0%" stop-color="#FFF"/>
            <stop offset="68.945%" stop-color="#E5E9FE"/>
            <stop offset="100%" stop-color="#FFF"/>
        </radialGradient>
        <radialGradient id="u3wmsdquqb" cx="50%" cy="50%" r="50.375%" fx="50%" fy="50%">
            <stop offset="0%" stop-color="#FFF"/>
            <stop offset="69.168%" stop-color="#E9ECFF"/>
            <stop offset="100%" stop-color="#FFF"/>
        </radialGradient>
        <linearGradient id="09df88544g" x1="1.733%" x2="97.842%" y1="4.062%" y2="95.533%">
            <stop offset="0%" stop-color="#FFF" stop-opacity=".2"/>
            <stop offset="100%" stop-color="#FFF" stop-opacity=".5"/>
        </linearGradient>
        <ellipse id="4hbmcbwsjf" cx="7.259" cy="7.081" rx="7.259" ry="7.081"/>
        <filter id="qoip126c3e" width="175.8%" height="177.7%" x="-37.9%" y="-24.7%" filterUnits="objectBoundingBox">
            <feOffset dy="2" in="SourceAlpha" result="shadowOffsetOuter1"/>
            <feGaussianBlur in="shadowOffsetOuter1" result="shadowBlurOuter1" stdDeviation="1.5"/>
            <feComposite in="shadowBlurOuter1" in2="SourceAlpha" operator="out" result="shadowBlurOuter1"/>
            <feColorMatrix in="shadowBlurOuter1" values="0 0 0 0 0.415686275 0 0 0 0 0 0 0 0 0 0.956862745 0 0 0 0.2 0"/>
        </filter>
        <rect id="pyha04wbfc" width="57" height="57" x="0" y="0" rx="28.378"/>
    </defs>
    <g fill="none" fill-rule="evenodd">
        <g>
            <g>
                <g transform="translate(-965 -2828) translate(965 2828)">
                    <rect width="100" height="100" fill="url(#bsgwlpr6la)" opacity=".4" rx="49.82"/>
                    <rect width="78" height="78" x="11.392" y="11.392" fill="url(#u3wmsdquqb)" rx="38.468"/>
                    <rect width="57" height="57" x="22" y="22" fill="#FFF" rx="28.378"/>
                </g>
                <g>
                    <g>
                        <g transform="translate(-965 -2828) translate(965 2828) translate(21.5 21.5)">
                            <mask id="1k8jvswk7d" fill="#fff">
                                <use xlink:href="#pyha04wbfc"/>
                            </mask>
                            <use fill="#FFF" xlink:href="#pyha04wbfc"/>
                            <path fill="#F20089" fill-rule="nonzero" d="M33.981-5.019c2.208 0 3.998 1.825 3.998 4.076 0 1.9-1.276 3.497-3.002 3.948v2.752l.056.008c3.576.511 6.342 3.592 6.445 7.353l.003.217c0 4.223-3.358 7.646-7.5 7.646-4.07 0-7.384-3.306-7.497-7.428l-.003-.218v-3.57c0-.735.737-1.215 1.382-.937l.088.043 6.503 3.57c.484.266.666.882.405 1.376-.245.464-.792.655-1.258.458l-.093-.045-5.033-2.763v1.868c0 3.036 2.363 5.509 5.317 5.61l.189.004c3.041 0 5.506-2.513 5.506-5.614 0-3.1-2.465-5.613-5.506-5.613-.516 0-.94-.4-.992-.912l-.005-.104v-3.7c-1.725-.452-3.001-2.049-3.001-3.95 0-2.25 1.79-4.075 3.998-4.075zm0 2.032c-1.107 0-2.005.916-2.005 2.044 0 1.128.898 2.043 2.005 2.043 1.107 0 2.005-.915 2.005-2.043 0-1.128-.898-2.044-2.005-2.044z" mask="url(#1k8jvswk7d)"/>
                        </g>
                        <path fill="#EBEEFF" d="M14.481 17.481h8.754l3.249 2H39.48c1.105 0 2 .895 2 2v18c0 1.105-.895 2-2 2h-25c-1.105 0-2-.895-2-2v-20c0-1.105.895-2 2-2z" transform="translate(-965 -2828) translate(965 2828) translate(21.5 21.5)"/>
                        <path fill="#CAD0F6" d="M12.481 38.482L10.375 21.481 37.765 17.481 40.461 35.171z" transform="translate(-965 -2828) translate(965 2828) translate(21.5 21.5)"/>
                        <path fill="#EBEEFF" d="M14.481 21.481h25c1.105 0 2 .895 2 2v16c0 1.105-.895 2-2 2h-25c-1.105 0-2-.895-2-2v-16c0-1.105.895-2 2-2z" transform="translate(-965 -2828) translate(965 2828) translate(21.5 21.5)"/>
                        <g>
                            <g transform="translate(-965 -2828) translate(965 2828) translate(21.5 21.5) translate(33.481 22.481)">
                                <use fill="#000" filter="url(#qoip126c3e)" xlink:href="#4hbmcbwsjf"/>
                                <ellipse cx="7.259" cy="7.081" fill="url(#09df88544g)" stroke="#6A00F4" stroke-linejoin="square" stroke-width="1.28" rx="6.619" ry="6.441"/>
                            </g>
                            <path stroke="#6A00F4" stroke-linecap="round" stroke-linejoin="round" stroke-width="1.28" d="M12.386 11.407L16.961 15.961" transform="translate(-965 -2828) translate(965 2828) translate(21.5 21.5) translate(33.481 22.481) rotate(-1 14.673 13.684)"/>
                        </g>
                    </g>
                </g>
            </g>
        </g>
    </g>
</svg>
