<?xml version="1.0" standalone="no"?>
<!DOCTYPE svg PUBLIC "-//W3C//DTD SVG 1.0//EN" "http://www.w3.org/TR/2001/REC-SVG-20010904/DTD/svg10.dtd">
<svg xmlns="http://www.w3.org/2000/svg" xmlns:xlink="http://www.w3.org/1999/xlink" id="body_1" width="557" height="485">

<g transform="matrix(0.85038173 0 0 0.84938705 0 0)">
	<g transform="matrix(0.7701008 0 0 0.7701008 -0 0.24331218)">
        <path transform="matrix(1 0 0 1 -174.73099 -79.58524)"  d="M941.609 465.1248C 941.72 556.79456 906.28723 644.9374 842.75903 711.0248C 838.9291 715.0348 834.9957 718.9481 830.95905 722.7648C 769.5614 773.3491 692.91284 801.7744 613.379 803.4548C 610.7291 803.5148 608.0691 803.5448 605.39905 803.5448C 541.96906 803.5448 462.18903 769.66486 389.78906 722.7648C 383.79907 718.88477 377.86243 714.9148 371.97906 710.8548C 344.05573 691.1378 317.54987 669.48395 292.65906 646.0548C 276.36203 630.76013 261.07938 614.41846 246.90906 597.1348C 191.27905 528.5148 179.00906 466.6848 258.31906 453.97482C 267.70905 452.47485 276.8224 450.87152 285.65906 449.16483C 351.39905 426.07483 395.39905 395.96487 425.34906 363.29483C 430.42908 357.76483 435.11243 352.16815 439.39905 346.50482C 445.95743 337.88477 451.91504 328.82306 457.22903 319.38483C 464.56363 306.27078 470.72424 292.53412 475.63904 278.33484L475.63904 278.33484L475.90903 277.55484C 499.739 208.81485 492.489 145.05484 518.77905 123.71484C 631.15906 32.48484 771.06903 162.40485 836.739 315.61484C 840.0491 323.33484 843.1624 331.1015 846.07904 338.91483C 847.049 342.6848 847.97906 346.44482 848.83905 350.20483C 938.139 412.30478 941.609 439.4548 941.609 465.1248z" stroke="none" fill="#F2F2F2" fill-rule="nonzero" />
        <path transform="matrix(1 0 0 1 -174.73099 -79.58524)"  d="M594.309 820.3248C 591.6591 820.3849 588.99915 820.41486 586.32904 820.41486C 522.89905 820.41486 443.11902 786.5349 370.71906 739.6349C 364.72906 735.7549 358.79242 731.7849 352.90906 727.7249L352.90906 727.7249L358.06906 696.3249L514.27905 675.5849L592.6791 735.5349L594.309 820.3248z" stroke="none" fill="#2F2E41" fill-rule="nonzero" />
        <path transform="matrix(1 0 0 1 -174.73099 -79.58524)"  d="M601.8289 259.63486L579.5689 259.63486C 578.1333 259.6355 576.9697 260.79913 576.96906 262.2347L576.96906 262.2347L576.96906 284.5047C 576.9697 285.1931 577.2442 285.85303 577.7319 286.3389C 578.2196 286.82477 578.8805 287.0967 579.5689 287.0948L579.5689 287.0948L601.8289 287.0948C 603.2612 287.0953 604.424 285.93698 604.429 284.5047L604.429 284.5047L604.429 262.2347C 604.42474 260.80054 603.2631 259.63898 601.8289 259.63486z" stroke="none" fill="#FFFFFF" fill-rule="nonzero" />
        <path transform="matrix(1 0 0 1 -174.73099 -79.58524)"  d="M601.8289 297.5848L579.5689 297.5848C 578.1333 297.58548 576.96967 298.7492 576.96906 300.1848L576.96906 300.1848L576.96906 322.4548C 576.9697 323.14325 577.24414 323.80313 577.7319 324.28897C 578.2196 324.77484 578.8805 325.04675 579.5689 325.0448L579.5689 325.0448L601.8289 325.0448C 603.2612 325.04538 604.424 323.8871 604.429 322.4548L604.429 322.4548L604.429 300.1848C 604.42487 298.75058 603.2632 297.58896 601.8289 297.5848z" stroke="none" fill="#E6E6E6" fill-rule="nonzero" />
        <path transform="matrix(1 0 0 1 -174.73099 -79.58524)"  d="M601.8289 335.53476L579.5689 335.53476C 578.13324 335.5355 576.9696 336.69922 576.96906 338.13486L576.96906 338.13486L576.96906 360.39487C 576.96765 361.0848 577.2411 361.74692 577.72894 362.23477C 578.21686 362.72266 578.8789 362.9961 579.5689 362.99472L579.5689 362.99472L601.8289 362.99472C 603.2646 362.99414 604.42834 361.8305 604.429 360.39487L604.429 360.39487L604.429 338.13486C 604.4248 336.7006 603.2632 335.53894 601.8289 335.53476z" stroke="none" fill="#E6E6E6" fill-rule="nonzero" />
        <path transform="matrix(1 0 0 1 -174.73099 -79.58524)"  d="M604.389 375.62485C 604.16 374.3894 603.0854 373.49106 601.8289 373.4847L601.8289 373.4847L579.5689 373.4847C 578.1333 373.48547 576.9697 374.64917 576.96906 376.0848L576.96906 376.0848L576.96906 398.34482C 576.96765 399.0348 577.2411 399.6969 577.72894 400.1848C 578.21686 400.6727 578.8789 400.9462 579.5689 400.94482L579.5689 400.94482L601.8289 400.94482C 603.2646 400.94418 604.42834 399.78052 604.429 398.34482L604.429 398.34482L604.429 376.0848C 604.431 375.93054 604.41766 375.77646 604.389 375.62485z" stroke="none" fill="#E6E6E6" fill-rule="nonzero" />
        <path transform="matrix(1 0 0 1 -174.73099 -79.58524)"  d="M602.839 411.63486C 602.51874 411.50238 602.17554 411.4344 601.829 411.43478L601.829 411.43478L579.569 411.43478C 578.87897 411.43344 578.2169 411.70694 577.729 412.19482C 577.24115 412.68274 576.9677 413.34485 576.9691 414.0348L576.9691 414.0348L576.9691 436.2948C 576.96594 436.9853 577.23883 437.64844 577.7271 438.13672C 578.21533 438.625 578.8785 438.89795 579.569 438.8949L579.569 438.8949L601.829 438.8949C 603.26465 438.8942 604.42834 437.7305 604.4291 436.2948L604.4291 436.2948L604.4291 414.0348C 604.4266 412.98886 603.8012 412.04498 602.839 411.63486z" stroke="none" fill="#E6E6E6" fill-rule="nonzero" />
        <path transform="matrix(1 0 0 1 -174.73099 -79.58524)"  d="M648.589 259.63486L626.329 259.63486C 624.8934 259.6355 623.7298 260.79913 623.7291 262.2347L623.7291 262.2347L623.7291 284.5047C 623.7298 285.1931 624.0043 285.85303 624.49194 286.3389C 624.9797 286.82477 625.64056 287.0967 626.329 287.0948L626.329 287.0948L648.589 287.0948C 650.0213 287.0953 651.1841 285.93698 651.1891 284.5047L651.1891 284.5047L651.1891 262.2347C 651.1848 260.80054 650.0232 259.63898 648.589 259.63486z" stroke="none" fill="#E6E6E6" fill-rule="nonzero" />
        <path transform="matrix(1 0 0 1 -174.73099 -79.58524)"  d="M648.589 297.5848L626.329 297.5848C 624.8934 297.58548 623.72974 298.7492 623.7291 300.1848L623.7291 300.1848L623.7291 322.4548C 623.7298 323.14325 624.0042 323.80313 624.49194 324.28897C 624.9797 324.77484 625.64056 325.04675 626.329 325.0448L626.329 325.0448L648.589 325.0448C 650.0213 325.04538 651.1841 323.8871 651.1891 322.4548L651.1891 322.4548L651.1891 300.1848C 651.18494 298.75058 650.02325 297.58896 648.589 297.5848z" stroke="none" fill="#6C63FF" fill-rule="nonzero" />
        <path transform="matrix(1 0 0 1 -174.73099 -79.58524)"  d="M648.589 335.53476L626.329 335.53476C 624.8933 335.5355 623.7297 336.69922 623.7291 338.13486L623.7291 338.13486L623.7291 360.39487C 623.7277 361.0848 624.00116 361.74692 624.489 362.23477C 624.9769 362.72266 625.639 362.9961 626.329 362.99472L626.329 362.99472L648.589 362.99472C 650.02466 362.99414 651.1884 361.8305 651.1891 360.39487L651.1891 360.39487L651.1891 338.13486C 651.1849 336.7006 650.02325 335.53894 648.589 335.53476z" stroke="none" fill="#6C63FF" fill-rule="nonzero" />
        <path transform="matrix(1 0 0 1 -174.73099 -79.58524)"  d="M648.589 373.4847L626.329 373.4847C 625.21094 373.48553 624.2194 374.203 623.86896 375.2647C 623.7764 375.52823 623.7291 375.80548 623.72906 376.08478L623.72906 376.08478L623.72906 398.3448C 623.72766 399.03473 624.0011 399.69684 624.48895 400.18475C 624.97687 400.67264 625.6389 400.94614 626.3289 400.9448L626.3289 400.9448L648.5889 400.9448C 650.0246 400.94412 651.18835 399.78046 651.189 398.3448L651.189 398.3448L651.189 376.08478C 651.1848 374.65057 650.0232 373.48895 648.589 373.4847z" stroke="none" fill="#6C63FF" fill-rule="nonzero" />
        <path transform="matrix(1 0 0 1 -174.73099 -79.58524)"  d="M648.589 411.43478L626.329 411.43478C 625.639 411.43344 624.9769 411.70694 624.489 412.19482C 624.00116 412.68274 623.7277 413.34485 623.7291 414.0348L623.7291 414.0348L623.7291 436.2948C 623.7277 436.98477 624.00116 437.64688 624.4891 438.1348C 624.9769 438.6227 625.63904 438.89624 626.329 438.8949L626.329 438.8949L648.589 438.8949C 650.02466 438.8942 651.18835 437.7305 651.1891 436.2948L651.1891 436.2948L651.1891 414.0348C 651.1884 412.59912 650.0247 411.43546 648.589 411.43478z" stroke="none" fill="#E6E6E6" fill-rule="nonzero" />
        <path transform="matrix(1 0 0 1 -174.73099 -79.58524)"  d="M695.349 259.63486L673.089 259.63486C 671.6534 259.6355 670.4898 260.79913 670.48914 262.2347L670.48914 262.2347L670.48914 284.5047C 670.4898 285.1931 670.7643 285.85303 671.25195 286.3389C 671.7397 286.82477 672.4006 287.0967 673.089 287.0948L673.089 287.0948L695.349 287.0948C 696.7813 287.0953 697.9441 285.93698 697.9491 284.5047L697.9491 284.5047L697.9491 262.2347C 697.9448 260.80054 696.7832 259.63898 695.349 259.63486z" stroke="none" fill="#6C63FF" fill-rule="nonzero" />
        <path transform="matrix(1 0 0 1 -174.73099 -79.58524)"  d="M695.349 297.5848L673.089 297.5848C 671.6534 297.58548 670.48975 298.7492 670.48914 300.1848L670.48914 300.1848L670.48914 322.4548C 670.4898 323.14325 670.7642 323.80313 671.25195 324.28897C 671.7397 324.77484 672.4006 325.04675 673.089 325.0448L673.089 325.0448L695.349 325.0448C 696.7813 325.04538 697.9441 323.8871 697.9491 322.4548L697.9491 322.4548L697.9491 300.1848C 697.94495 298.75058 696.78326 297.58896 695.349 297.5848z" stroke="none" fill="#6C63FF" fill-rule="nonzero" />
        <path transform="matrix(1 0 0 1 -174.73099 -79.58524)"  d="M695.349 335.53476L673.089 335.53476C 671.6533 335.5355 670.4897 336.69922 670.48914 338.13486L670.48914 338.13486L670.48914 360.39487C 670.48773 361.0848 670.76117 361.74692 671.249 362.23477C 671.73694 362.72266 672.399 362.9961 673.089 362.99472L673.089 362.99472L695.349 362.99472C 696.78467 362.99414 697.9484 361.8305 697.9491 360.39487L697.9491 360.39487L697.9491 338.13486C 697.9449 336.7006 696.78326 335.53894 695.349 335.53476z" stroke="none" fill="#E6E6E6" fill-rule="nonzero" />
        <path transform="matrix(1 0 0 1 -174.73099 -79.58524)"  d="M695.349 373.4847L673.089 373.4847C 671.6534 373.48547 670.4898 374.64917 670.48914 376.0848L670.48914 376.0848L670.48914 398.34482C 670.48773 399.0348 670.76117 399.6969 671.249 400.1848C 671.73694 400.6727 672.399 400.9462 673.089 400.94482L673.089 400.94482L695.349 400.94482C 696.78467 400.94418 697.9484 399.78052 697.9491 398.34482L697.9491 398.34482L697.9491 376.0848C 697.9449 374.65057 696.78326 373.48895 695.349 373.4847z" stroke="none" fill="#6C63FF" fill-rule="nonzero" />
        <path transform="matrix(1 0 0 1 -174.73099 -79.58524)"  d="M695.349 411.43478L673.089 411.43478C 672.399 411.43344 671.73694 411.70694 671.249 412.19482C 670.76117 412.68274 670.48773 413.34485 670.48914 414.0348L670.48914 414.0348L670.48914 436.2948C 670.48773 436.98477 670.76117 437.64688 671.2491 438.1348C 671.73694 438.6227 672.39905 438.89624 673.089 438.8949L673.089 438.8949L695.349 438.8949C 696.78467 438.8942 697.94836 437.7305 697.9491 436.2948L697.9491 436.2948L697.9491 414.0348C 697.9484 412.59912 696.7847 411.43546 695.349 411.43478z" stroke="none" fill="#6C63FF" fill-rule="nonzero" />
        <path transform="matrix(1 0 0 1 -174.73099 -79.58524)"  d="M742.109 259.63486L719.849 259.63486C 718.4134 259.6355 717.24976 260.7991 717.249 262.2347L717.249 262.2347L717.249 284.5047C 717.24976 285.1931 717.52423 285.85303 718.01196 286.3389C 718.49963 286.82474 719.1606 287.0967 719.849 287.0948L719.849 287.0948L742.109 287.0948C 743.5413 287.0953 744.7041 285.93698 744.7091 284.5047L744.7091 284.5047L744.7091 262.2347C 744.70483 260.80054 743.5432 259.63898 742.109 259.63486z" stroke="none" fill="#6C63FF" fill-rule="nonzero" />
        <path transform="matrix(1 0 0 1 -174.73099 -79.58524)"  d="M742.109 297.5848L719.849 297.5848C 718.4133 297.58548 717.24963 298.74915 717.249 300.1848L717.249 300.1848L717.249 322.4548C 717.24976 323.14325 717.52423 323.80313 718.0119 324.28897C 718.49963 324.77484 719.1606 325.04675 719.849 325.0448L719.849 325.0448L742.109 325.0448C 743.5413 325.04538 744.7041 323.8871 744.7091 322.4548L744.7091 322.4548L744.7091 300.1848C 744.70496 298.75058 743.5433 297.58896 742.109 297.5848z" stroke="none" fill="#FFFFFF" fill-rule="nonzero" />
        <path transform="matrix(1 0 0 1 -174.73099 -79.58524)"  d="M742.109 335.53476L719.849 335.53476C 718.4133 335.53546 717.24963 336.6992 717.249 338.13486L717.249 338.13486L717.249 360.39487C 717.2477 361.08484 717.5211 361.74692 718.00903 362.2348C 718.49695 362.72266 719.15906 362.99612 719.849 362.99472L719.849 362.99472L742.109 362.99472C 743.5447 362.99414 744.70844 361.8305 744.7091 360.39487L744.7091 360.39487L744.7091 338.13486C 744.7049 336.7006 743.5433 335.53894 742.109 335.53476z" stroke="none" fill="#FFFFFF" fill-rule="nonzero" />
        <path transform="matrix(1 0 0 1 -174.73099 -79.58524)"  d="M742.109 373.4847L719.849 373.4847C 718.4133 373.48547 717.2497 374.64917 717.249 376.0848L717.249 376.0848L717.249 398.34482C 717.2477 399.03482 717.5211 399.69693 718.00903 400.18484C 718.4969 400.67273 719.159 400.94623 719.849 400.94482L719.849 400.94482L742.109 400.94482C 743.5447 400.94418 744.70844 399.78052 744.7091 398.34482L744.7091 398.34482L744.7091 376.0848C 744.7049 374.65057 743.5433 373.48895 742.109 373.4847z" stroke="none" fill="#E6E6E6" fill-rule="nonzero" />
        <path transform="matrix(1 0 0 1 -174.73099 -79.58524)"  d="M742.109 411.43478L719.849 411.43478C 719.159 411.4334 718.4969 411.7069 718.00903 412.1948C 717.5211 412.6827 717.2477 413.34482 717.249 414.0348L717.249 414.0348L717.249 436.2948C 717.2476 436.98477 717.5211 437.64688 718.00903 438.1348C 718.4969 438.6227 719.159 438.8962 719.849 438.8949L719.849 438.8949L742.109 438.8949C 743.5447 438.8942 744.7084 437.7305 744.7091 436.2948L744.7091 436.2948L744.7091 414.0348C 744.70844 412.59912 743.54474 411.43546 742.109 411.43478z" stroke="none" fill="#6C63FF" fill-rule="nonzero" />
        <path transform="matrix(1 0 0 1 -174.73099 -79.58524)"  d="M788.869 259.63486L766.599 259.63486C 765.1668 259.63983 764.0085 260.8025 764.009 262.2347L764.009 262.2347L764.009 284.5047C 764.0092 285.93503 765.16864 287.09448 766.599 287.0948L766.599 287.0948L788.869 287.0948C 790.30133 287.0953 791.4641 285.93698 791.4691 284.5047L791.4691 284.5047L791.4691 262.2347C 791.46484 260.80054 790.3032 259.63898 788.869 259.63486z" stroke="none" fill="#FFFFFF" fill-rule="nonzero" />
        <path transform="matrix(1 0 0 1 -174.73099 -79.58524)"  d="M788.869 297.5848L766.599 297.5848C 765.16675 297.58978 764.0084 298.75253 764.009 300.1848L764.009 300.1848L764.009 322.4548C 764.0092 323.88513 765.16864 325.0446 766.599 325.0448L766.599 325.0448L788.869 325.0448C 790.30133 325.04538 791.4641 323.8871 791.4691 322.4548L791.4691 322.4548L791.4691 300.1848C 791.46497 298.75058 790.3033 297.58896 788.869 297.5848z" stroke="none" fill="#FFFFFF" fill-rule="nonzero" />
        <path transform="matrix(1 0 0 1 -174.73099 -79.58524)"  d="M788.869 335.53476L766.599 335.53476C 765.1667 335.53976 764.0084 336.70255 764.009 338.13486L764.009 338.13486L764.009 360.39487C 764.007 361.08325 764.279 361.74417 764.76483 362.23187C 765.2507 362.71957 765.9106 362.99402 766.599 362.99472L766.599 362.99472L788.869 362.99472C 790.3047 362.99414 791.46844 361.8305 791.4691 360.39487L791.4691 360.39487L791.4691 338.13486C 791.4649 336.7006 790.3033 335.53894 788.869 335.53476z" stroke="none" fill="#FFFFFF" fill-rule="nonzero" />
        <path transform="matrix(1 0 0 1 -174.73099 -79.58524)"  d="M788.869 373.4847L766.599 373.4847C 765.1667 373.48978 764.0084 374.65253 764.009 376.0848L764.009 376.0848L764.009 398.34482C 764.00696 399.03326 764.27893 399.6942 764.7648 400.18195C 765.2506 400.66968 765.9105 400.94415 766.599 400.94482L766.599 400.94482L788.869 400.94482C 790.3047 400.94418 791.46844 399.78052 791.4691 398.34482L791.4691 398.34482L791.4691 376.0848C 791.4649 374.65057 790.3033 373.48895 788.869 373.4847z" stroke="none" fill="#6C63FF" fill-rule="nonzero" />
        <path transform="matrix(1 0 0 1 -174.73099 -79.58524)"  d="M788.869 411.43478L766.599 411.43478C 765.9105 411.43552 765.2506 411.71 764.7648 412.19772C 764.27893 412.68546 764.00696 413.34637 764.009 414.0348L764.009 414.0348L764.009 436.2948C 764.007 436.98325 764.27893 437.6442 764.7648 438.13193C 765.2507 438.6197 765.9105 438.89417 766.599 438.8949L766.599 438.8949L788.869 438.8949C 790.3047 438.8942 791.4684 437.7305 791.4691 436.2948L791.4691 436.2948L791.4691 414.0348C 791.46844 412.59912 790.30475 411.43546 788.869 411.43478z" stroke="none" fill="#E6E6E6" fill-rule="nonzero" />
        <path transform="matrix(1 0 0 1 -174.73099 -79.58524)"  d="M835.629 259.63486L813.359 259.63486C 811.9268 259.63983 810.7685 260.8025 810.769 262.2347L810.769 262.2347L810.769 284.5047C 810.7692 285.93503 811.92865 287.09448 813.359 287.0948L813.359 287.0948L835.629 287.0948C 837.06134 287.09525 838.22406 285.93698 838.2291 284.5047L838.2291 284.5047L838.2291 262.2347C 838.22485 260.80054 837.06323 259.639 835.629 259.63486z" stroke="none" fill="#FFFFFF" fill-rule="nonzero" />
        <path transform="matrix(1 0 0 1 -174.73099 -79.58524)"  d="M835.629 297.5848L813.359 297.5848C 811.92676 297.58978 810.76843 298.75253 810.769 300.1848L810.769 300.1848L810.769 322.4548C 810.7692 323.88513 811.92865 325.0446 813.359 325.0448L813.359 325.0448L835.629 325.0448C 837.06134 325.04532 838.2241 323.8871 838.2291 322.4548L838.2291 322.4548L838.2291 300.1848C 838.22485 298.7506 837.06323 297.58902 835.629 297.5848z" stroke="none" fill="#FFFFFF" fill-rule="nonzero" />
        <path transform="matrix(1 0 0 1 -174.73099 -79.58524)"  d="M835.629 335.53476L813.359 335.53476C 811.9267 335.53976 810.76843 336.70255 810.769 338.13486L810.769 338.13486L810.769 360.39487C 810.767 361.08325 811.039 361.74417 811.52484 362.23187C 812.0107 362.71957 812.6706 362.99402 813.359 362.99472L813.359 362.99472L835.629 362.99472C 837.06464 362.9941 838.22833 361.8305 838.2291 360.39487L838.2291 360.39487L838.2291 338.13486C 838.2249 336.70062 837.0633 335.539 835.629 335.53476z" stroke="none" fill="#6C63FF" fill-rule="nonzero" />
        <path transform="matrix(1 0 0 1 -174.73099 -79.58524)"  d="M835.629 373.4847L813.359 373.4847C 811.9267 373.48978 810.76843 374.65253 810.769 376.0848L810.769 376.0848L810.769 398.34482C 810.76697 399.03326 811.03894 399.6942 811.5248 400.18195C 812.0106 400.66968 812.67053 400.94415 813.359 400.94482L813.359 400.94482L835.629 400.94482C 837.0647 400.94415 838.2284 399.78052 838.2291 398.34482L838.2291 398.34482L838.2291 376.0848C 838.22485 374.6506 837.06323 373.489 835.629 373.4847z" stroke="none" fill="#E6E6E6" fill-rule="nonzero" />
        <path transform="matrix(1 0 0 1 -174.73099 -79.58524)"  d="M835.629 411.43478L813.359 411.43478C 812.67053 411.43552 812.0106 411.71 811.5248 412.19772C 811.03894 412.68546 810.76697 413.34637 810.769 414.0348L810.769 414.0348L810.769 436.2948C 810.767 436.98325 811.03894 437.6442 811.5248 438.13193C 812.0107 438.6197 812.67053 438.89417 813.359 438.8949L813.359 438.8949L835.629 438.8949C 837.06476 438.89413 838.2284 437.73047 838.2291 436.2948L838.2291 436.2948L838.2291 414.0348C 838.22833 412.59915 837.0647 411.43552 835.629 411.43478z" stroke="none" fill="#FFFFFF" fill-rule="nonzero" />
        <path transform="matrix(1 0 0 1 -174.73099 -79.58524)"  d="M882.389 259.63486L860.11896 259.63486C 858.6868 259.63983 857.5285 260.8025 857.52893 262.2347L857.52893 262.2347L857.52893 284.5047C 857.52924 285.93503 858.68866 287.09448 860.11896 287.0948L860.11896 287.0948L882.389 287.0948C 883.8213 287.09525 884.984 285.93698 884.9891 284.5047L884.9891 284.5047L884.9891 262.2347C 884.9848 260.80054 883.8232 259.639 882.389 259.63486z" stroke="none" fill="#6C63FF" fill-rule="nonzero" />
        <path transform="matrix(1 0 0 1 -174.73099 -79.58524)"  d="M882.389 297.5848L860.11896 297.5848C 858.68677 297.58978 857.52844 298.75253 857.52893 300.1848L857.52893 300.1848L857.52893 322.4548C 857.52924 323.88513 858.68866 325.0446 860.11896 325.0448L860.11896 325.0448L882.389 325.0448C 883.8213 325.04532 884.9841 323.8871 884.9891 322.4548L884.9891 322.4548L884.9891 300.1848C 884.9848 298.7506 883.8232 297.58902 882.389 297.5848z" stroke="none" fill="#6C63FF" fill-rule="nonzero" />
        <path transform="matrix(1 0 0 1 -174.73099 -79.58524)"  d="M882.389 335.53476L860.11896 335.53476C 858.6867 335.53976 857.52844 336.70255 857.52893 338.13486L857.52893 338.13486L857.52893 360.39487C 857.52704 361.08325 857.799 361.74417 858.28485 362.23187C 858.7707 362.71957 859.4306 362.99402 860.11896 362.99472L860.11896 362.99472L882.389 362.99472C 883.8246 362.9941 884.9883 361.8305 884.9891 360.39487L884.9891 360.39487L884.9891 338.13486C 884.98486 336.70062 883.82324 335.539 882.389 335.53476z" stroke="none" fill="#E6E6E6" fill-rule="nonzero" />
        <path transform="matrix(1 0 0 1 -174.73099 -79.58524)"  d="M882.389 373.4847L860.11896 373.4847C 858.6867 373.48978 857.52844 374.65253 857.52893 376.0848L857.52893 376.0848L857.52893 398.34482C 857.527 399.03326 857.79895 399.6942 858.2848 400.18195C 858.7706 400.66968 859.43054 400.94415 860.11896 400.94482L860.11896 400.94482L882.389 400.94482C 883.82465 400.94415 884.98834 399.78052 884.9891 398.34482L884.9891 398.34482L884.9891 376.0848C 884.9848 374.6506 883.8232 373.489 882.389 373.4847z" stroke="none" fill="#FFFFFF" fill-rule="nonzero" />
        <path transform="matrix(1 0 0 1 -174.73099 -79.58524)"  d="M882.389 411.43478L860.11896 411.43478C 859.43054 411.43552 858.7706 411.71 858.2848 412.19772C 857.79895 412.68546 857.527 413.34637 857.52893 414.0348L857.52893 414.0348L857.52893 436.2948C 857.52704 436.98325 857.79895 437.6442 858.2848 438.13193C 858.7707 438.6197 859.43054 438.89417 860.11896 438.8949L860.11896 438.8949L882.389 438.8949C 883.8247 438.89413 884.98834 437.73047 884.9891 436.2948L884.9891 436.2948L884.9891 414.0348C 884.9883 412.59915 883.82465 411.43552 882.389 411.43478z" stroke="none" fill="#6C63FF" fill-rule="nonzero" />
        <path transform="matrix(1 0 0 1 -174.73099 -79.58524)"  d="M929.149 259.63486L906.87897 259.63486C 905.44684 259.63983 904.2885 260.8025 904.28894 262.2347L904.28894 262.2347L904.28894 284.5047C 904.28925 285.93503 905.44867 287.09448 906.87897 287.0948L906.87897 287.0948L929.149 287.0948C 930.5813 287.09525 931.74396 285.93695 931.74896 284.5047L931.74896 284.5047L931.74896 262.2347C 931.7447 260.80057 930.5831 259.63904 929.149 259.63486z" stroke="none" fill="#6C63FF" fill-rule="nonzero" />
        <path transform="matrix(1 0 0 1 -174.73099 -79.58524)"  d="M929.149 297.5848L906.87897 297.5848C 905.4468 297.58978 904.28845 298.75253 904.28894 300.1848L904.28894 300.1848L904.28894 322.4548C 904.28925 323.88513 905.44867 325.0446 906.87897 325.0448L906.87897 325.0448L929.149 325.0448C 930.58124 325.04535 931.74396 323.8871 931.74896 322.4548L931.74896 322.4548L931.74896 300.1848C 931.74475 298.7506 930.5832 297.58902 929.149 297.5848z" stroke="none" fill="#6C63FF" fill-rule="nonzero" />
        <path transform="matrix(1 0 0 1 -174.73099 -79.58524)"  d="M929.149 335.53476L906.87897 335.53476C 905.4467 335.53976 904.28845 336.70255 904.28894 338.13486L904.28894 338.13486L904.28894 360.39487C 904.28705 361.08325 904.559 361.74417 905.04486 362.23187C 905.5307 362.71957 906.1906 362.99402 906.87897 362.99472L906.87897 362.99472L929.149 362.99472C 930.5846 362.99408 931.7482 361.83047 931.74896 360.39487L931.74896 360.39487L931.74896 338.13486C 931.74475 336.70062 930.5832 335.539 929.149 335.53476z" stroke="none" fill="#E6E6E6" fill-rule="nonzero" />
        <path transform="matrix(1 0 0 1 -174.73099 -79.58524)"  d="M929.149 373.4847L906.87897 373.4847C 905.4467 373.48978 904.28845 374.65253 904.28894 376.0848L904.28894 376.0848L904.28894 398.34482C 904.287 399.03326 904.55896 399.6942 905.0448 400.18195C 905.53064 400.66968 906.19055 400.94415 906.87897 400.94482L906.87897 400.94482L929.149 400.94482C 930.5846 400.94415 931.7483 399.7805 931.74896 398.34482L931.74896 398.34482L931.74896 376.0848C 931.74475 374.6506 930.5832 373.489 929.149 373.4847z" stroke="none" fill="#6C63FF" fill-rule="nonzero" />
        <path transform="matrix(1 0 0 1 -174.73099 -79.58524)"  d="M929.149 411.43478L906.87897 411.43478C 906.19055 411.43552 905.53064 411.71 905.0448 412.19772C 904.55896 412.68546 904.287 413.34637 904.28894 414.0348L904.28894 414.0348L904.28894 436.2948C 904.28705 436.98325 904.55896 437.6442 905.0448 438.13193C 905.5307 438.6197 906.19055 438.89417 906.87897 438.8949L906.87897 438.8949L929.149 438.8949C 930.5846 438.89413 931.7482 437.73047 931.74896 436.2948L931.74896 436.2948L931.74896 414.0348C 931.7483 412.59915 930.58466 411.4355 929.149 411.43478z" stroke="none" fill="#6C63FF" fill-rule="nonzero" />
        <path transform="matrix(1 0 0 1 -174.73099 -79.58524)"  d="M975.909 259.63486L953.639 259.63486C 952.20685 259.63983 951.0485 260.8025 951.04895 262.2347L951.04895 262.2347L951.04895 284.5047C 951.04926 285.93503 952.2087 287.09448 953.639 287.0948L953.639 287.0948L975.909 287.0948C 977.3413 287.09525 978.50397 285.93695 978.509 284.5047L978.509 284.5047L978.509 262.2347C 978.5047 260.80057 977.34314 259.63904 975.909 259.63486z" stroke="none" fill="#E6E6E6" fill-rule="nonzero" />
        <path transform="matrix(1 0 0 1 -174.73099 -79.58524)"  d="M975.909 297.5848L953.639 297.5848C 952.2068 297.58978 951.04846 298.75253 951.04895 300.1848L951.04895 300.1848L951.04895 322.4548C 951.04926 323.88513 952.2087 325.0446 953.639 325.0448L953.639 325.0448L975.909 325.0448C 977.34125 325.04535 978.50397 323.8871 978.509 322.4548L978.509 322.4548L978.509 300.1848C 978.50476 298.7506 977.3432 297.58902 975.909 297.5848z" stroke="none" fill="#6C63FF" fill-rule="nonzero" />
        <path transform="matrix(1 0 0 1 -174.73099 -79.58524)"  d="M975.909 335.53476L953.639 335.53476C 952.2067 335.53976 951.04846 336.70255 951.04895 338.13486L951.04895 338.13486L951.04895 360.39487C 951.04706 361.08325 951.31903 361.74417 951.8049 362.23187C 952.2907 362.71957 952.9506 362.99402 953.639 362.99472L953.639 362.99472L975.909 362.99472C 977.3446 362.99408 978.50824 361.83047 978.509 360.39487L978.509 360.39487L978.509 338.13486C 978.50476 336.70062 977.3432 335.539 975.909 335.53476z" stroke="none" fill="#6C63FF" fill-rule="nonzero" />
        <path transform="matrix(1 0 0 1 -174.73099 -79.58524)"  d="M975.909 373.4847L953.639 373.4847C 952.2067 373.48978 951.04846 374.65253 951.04895 376.0848L951.04895 376.0848L951.04895 398.34482C 951.047 399.03326 951.319 399.6942 951.8048 400.18195C 952.29065 400.66968 952.95056 400.94415 953.639 400.94482L953.639 400.94482L975.909 400.94482C 977.3446 400.94415 978.5083 399.7805 978.509 398.34482L978.509 398.34482L978.509 376.0848C 978.50476 374.6506 977.3432 373.489 975.909 373.4847z" stroke="none" fill="#6C63FF" fill-rule="nonzero" />
        <path transform="matrix(1 0 0 1 -174.73099 -79.58524)"  d="M975.909 411.43478L953.639 411.43478C 952.95056 411.43552 952.29065 411.71 951.8048 412.19772C 951.319 412.68546 951.047 413.34637 951.04895 414.0348L951.04895 414.0348L951.04895 436.2948C 951.04706 436.98325 951.319 437.6442 951.8048 438.13193C 952.2907 438.6197 952.95056 438.89417 953.639 438.8949L953.639 438.8949L975.909 438.8949C 977.3446 438.89413 978.50824 437.73047 978.509 436.2948L978.509 436.2948L978.509 414.0348C 978.5083 412.59915 977.34467 411.4355 975.909 411.43478z" stroke="none" fill="#E6E6E6" fill-rule="nonzero" />
        <path transform="matrix(1 0 0 1 -174.73099 -79.58524)"  d="M1022.669 259.63486L1000.399 259.63486C 998.9668 259.63983 997.8085 260.8025 997.8089 262.2347L997.8089 262.2347L997.8089 284.5047C 997.80927 285.93503 998.9687 287.09445 1000.399 287.0948L1000.399 287.0948L1022.669 287.0948C 1024.1012 287.09528 1025.264 285.93698 1025.269 284.5047L1025.269 284.5047L1025.269 262.2347C 1025.2648 260.80054 1024.1031 259.639 1022.669 259.63486z" stroke="none" fill="#E6E6E6" fill-rule="nonzero" />
        <path transform="matrix(1 0 0 1 -174.73099 -79.58524)"  d="M1022.669 297.5848L1000.399 297.5848C 998.96674 297.5898 997.8085 298.75256 997.8089 300.1848L997.8089 300.1848L997.8089 322.4548C 997.8092 323.88513 998.9686 325.04453 1000.399 325.0448L1000.399 325.0448L1022.669 325.0448C 1024.1013 325.04538 1025.264 323.8871 1025.269 322.4548L1025.269 322.4548L1025.269 300.1848C 1025.2649 298.7506 1024.1033 297.58896 1022.669 297.5848z" stroke="none" fill="#E6E6E6" fill-rule="nonzero" />
        <path transform="matrix(1 0 0 1 -174.73099 -79.58524)"  d="M1022.669 335.53476L1000.399 335.53476C 998.9667 335.53983 997.8084 336.70258 997.8089 338.13486L997.8089 338.13486L997.8089 360.39487C 997.807 361.08328 998.079 361.7442 998.5648 362.23187C 999.0507 362.71957 999.7106 362.99402 1000.399 362.99472L1000.399 362.99472L1022.669 362.99472C 1024.1046 362.9941 1025.2683 361.8305 1025.269 360.39487L1025.269 360.39487L1025.269 338.13486C 1025.2649 336.70062 1024.1033 335.53897 1022.669 335.53476z" stroke="none" fill="#6C63FF" fill-rule="nonzero" />
        <path transform="matrix(1 0 0 1 -174.73099 -79.58524)"  d="M1022.669 373.4847L1000.399 373.4847C 998.96674 373.4898 997.8085 374.65256 997.8089 376.0848L997.8089 376.0848L997.8089 398.34482C 997.807 399.03326 998.079 399.69418 998.5648 400.18192C 999.0507 400.66965 999.7106 400.94412 1000.399 400.94482L1000.399 400.94482L1022.669 400.94482C 1024.1046 400.94418 1025.2683 399.78052 1025.269 398.34482L1025.269 398.34482L1025.269 376.0848C 1025.2648 374.6506 1024.1031 373.48898 1022.669 373.4847z" stroke="none" fill="#E6E6E6" fill-rule="nonzero" />
        <path transform="matrix(1 0 0 1 -174.73099 -79.58524)"  d="M1022.669 411.43478L1000.399 411.43478C 999.7106 411.43552 999.05066 411.71 998.5648 412.19772C 998.079 412.68546 997.807 413.34637 997.8089 414.0348L997.8089 414.0348L997.8089 436.2948C 997.80695 436.98325 998.0789 437.64417 998.56476 438.1319C 999.05066 438.61966 999.7105 438.89413 1000.399 438.8949L1000.399 438.8949L1022.669 438.8949C 1024.1046 438.89417 1025.2683 437.7305 1025.269 436.2948L1025.269 436.2948L1025.269 414.0348C 1025.2683 412.59912 1024.1046 411.43546 1022.669 411.43478z" stroke="none" fill="#E6E6E6" fill-rule="nonzero" />
        <path d="M336.095 660.051L335.475 660.051L336.005 659.981L336.095 660.051" stroke="none" fill="#2F2E41" fill-rule="nonzero" />
        <path d="M351.13623 176.73277C 351.13623 157.86621 344.4659 141.7626 331.12524 128.42194C 317.78458 115.08126 301.68097 108.41092 282.8144 108.41092C 263.94785 108.41092 247.84422 115.08126 234.50354 128.42194C 221.16287 141.7626 214.49254 157.86621 214.49254 176.73277C 214.49254 195.59933 221.16287 211.70296 234.50354 225.04361C 247.84422 238.3843 263.94785 245.05463 282.8144 245.05463C 301.68097 245.05463 317.78458 238.3843 331.12524 225.04361C 344.4659 211.70296 351.13623 195.59933 351.13623 176.73277" stroke="none" fill="#FFB6B6" fill-rule="nonzero" />
        <path transform="matrix(1 0 0 1 -174.73099 -79.58524)"  d="M517.37695 206.2256C 517.37695 206.2256 535.24634 172.0647 495.93314 168.9591C 495.93314 168.9591 462.41824 138.55682 428.25732 163.40111C 428.25732 163.40111 409.6241 163.40111 399.43478 184.48679C 399.43478 184.48679 384.7798 178.92879 381.55927 193.80339C 381.55927 193.80339 370.8358 224.85886 381.55927 252.80872C 392.28275 280.75864 395.84464 283.86407 395.84464 283.86407C 395.84464 283.86407 378.22372 225.26569 421.11453 222.16008C 464.00534 219.05447 512.0012 192.25066 515.5757 226.41151C 519.15015 260.5724 524.529 268.98935 524.529 268.98935C 524.529 268.98935 558.4786 220.2006 517.37695 206.2256z" stroke="none" fill="#2F2E41" fill-rule="nonzero" />
        <path transform="matrix(1 0 0 1 -174.73099 -79.58524)"  d="M634.279 424.6948L634.0589 425.8548L631.5889 438.8948L614.519 529.0948L613.509 534.40485L611.389 545.6348L608.4891 560.9548L602.0589 594.90485L600.21906 604.6348L599.529 608.2847L599.289 609.56476L597.379 619.6348L596.799 622.67474L592.13904 657.2047L588.069 687.29474L601.6891 700.91473L593.569 709.0347L588.23914 739.56476L588.249 739.6348L370.7191 739.6348C 361.91904 733.9348 353.24573 728.0581 344.6991 722.0047L344.6991 722.0047L346.4891 708.6048C 346.4891 708.6048 352.64902 684.67474 350.05893 681.8148C 347.4791 678.95483 341.81894 673.84485 341.81894 673.84485L341.81894 673.84485L348.94907 657.20483L349.93906 654.8949L348.27905 620.46484L348.23914 619.6348L347.68915 608.2847L347.61908 606.8247L347.5091 604.63477L345.3991 560.9547L345.3591 560.2346L344.7192 546.9946L344.1191 534.4048L343.8591 529.0947L341.28915 475.96472L339.54916 439.88477L338.02917 408.47476L344.13916 406.40482L409.48926 384.19473L436.55908 349.00467L492.89917 349.42468L520.47925 349.63477L566.49915 392.3147L576.96924 397.3147L577.04926 397.3547L584.55914 400.9447L603.5991 410.0347L623.72925 419.65482L634.0591 424.58475L634.279 424.6948z" stroke="none" fill="#CACACA" fill-rule="nonzero" />
        <path transform="matrix(1 0 0 1 -174.73099 -79.58524)"  d="M443.83984 637.1361C 435.48218 640.37396 426.1196 639.7435 418.2714 635.41455C 410.42322 631.0855 404.89563 623.50256 403.17596 614.7061L403.17596 614.7061L296.61713 599.5882L333.6599 557.6862L429.1709 578.4665C 444.4759 576.5141 458.82227 586.31757 462.5647 601.28577C 466.30716 616.25397 458.26273 631.6557 443.8398 637.1361L443.8398 637.1361L443.83984 637.1361z" stroke="none" fill="#FFB6B6" fill-rule="nonzero" />
        <path transform="matrix(1 0 0 1 -174.73099 -79.58524)"  d="M396.32895 560.9548C 394.3551 558.4524 391.56076 556.7276 388.43906 556.0848L388.43906 556.0848L344.71906 546.9947L340.22906 546.06476C 334.95148 544.9633 330.39377 541.6642 327.69897 536.9947C 326.3169 534.5711 325.48074 531.875 325.24896 529.0948C 325.0406 526.56696 325.34326 524.02313 326.13898 521.6148L326.13898 521.6148L341.28897 475.9648L351.11893 446.34482C 352.3103 442.77246 353.01334 439.05554 353.209 435.29483C 353.75668 424.8877 350.53674 414.63156 344.13895 406.40494C 332.59055 391.5587 312.68668 386.01917 295.12894 392.7648C 294.87894 392.8549 294.61893 392.95486 294.36893 393.0548C 281.9353 398.01953 272.56042 408.54263 269.05893 421.4648L269.05893 421.4648L258.37894 460.31482L236.34894 540.4049C 231.88623 556.64307 234.73163 574.0202 244.14021 587.98706C 253.54881 601.95386 268.58374 611.1196 285.30893 613.08484L285.30893 613.08484L348.27893 620.46484L377.41895 623.8848C 384.40662 624.72455 390.86655 620.0537 392.25894 613.15485C 392.30606 612.97375 392.3428 612.7901 392.36893 612.6048L392.36893 612.6048L393.06894 608.2847L398.999 571.90485L399.05893 571.5347C 399.68378 567.7808 398.6921 563.93774 396.32895 560.9548z" stroke="none" fill="#CACACA" fill-rule="nonzero" />
        <path transform="matrix(1 0 0 1 -174.73099 -79.58524)"  d="M511.71356 638.30237C 520.4443 640.3293 529.6244 638.3848 536.7837 632.9924C 543.943 627.59985 548.346 619.31323 548.80804 610.3622L548.80804 610.3622L652.17004 580.3685L609.5885 544.10895L517.96234 578.15045C 502.5349 578.3758 489.71423 590.10443 488.11996 605.4509C 486.52573 620.7974 496.66183 634.9109 511.71353 638.3024L511.71353 638.3024L511.71356 638.30237z" stroke="none" fill="#FFB6B6" fill-rule="nonzero" />
        <path transform="matrix(1 0 0 1 -174.73099 -79.58524)"  d="M703.4891 513.2748L654.3289 400.13486C 650.308 390.8461 643.1266 383.28204 634.0589 378.78476C 631.2561 377.40488 628.3124 376.33197 625.279 375.58475C 624.8089 375.46475 624.3389 375.35474 623.869 375.26468C 617.43677 373.86108 610.7651 373.9844 604.38904 375.6248C 592.6014 378.653 582.65955 386.55484 577.049 397.3548C 577.0187 397.3992 576.9919 397.44598 576.969 397.4947C 570.6849 409.65158 570.5475 424.07037 576.5989 436.3448L576.5989 436.3448L577.209 437.5648L611.949 507.33478C 614.34827 512.16034 614.57355 517.78064 612.5681 522.7828C 610.5627 527.7849 606.51733 531.69305 601.449 533.5247L601.449 533.5247L599.0089 534.40485L555.1289 550.2547C 548.2854 552.69666 544.6034 560.1181 546.7989 567.0447L546.7989 567.0447L546.9089 567.3948L559.20886 606.75464C 559.2688 606.9347 559.32874 607.11475 559.3988 607.2946C 559.50696 607.6342 559.6407 607.9652 559.7988 608.2846C 562.4995 614.34143 569.20404 617.5347 575.60876 615.81464L575.60876 615.81464L599.2888 609.56464L604.1188 608.2846L665.2688 592.1347C 681.5512 587.83215 695.1449 576.6375 702.4899 561.48236C 709.835 546.32715 710.1998 528.721 703.4889 513.2746L703.4889 513.2746L703.4891 513.2748z" stroke="none" fill="#CACACA" fill-rule="nonzero" />
        <path transform="matrix(1 0 0 1 -174.73099 -79.58524)"  d="M219.629 608.2848C 233.79929 625.56836 249.08194 641.91003 265.379 657.2048L265.379 657.2048L717.349 657.2048C 726.41547 657.21906 733.7602 664.56824 733.769 673.63477L733.769 673.63477L734.419 788.1648C 762.2237 775.39026 788.2623 759.0787 811.88904 739.63477C 818.4491 734.24475 824.8058 728.62146 830.95905 722.7648C 859.7227 692.79987 883.0149 658.0276 899.77905 620.0248L899.77905 620.0248L219.629 608.2848z" stroke="none" fill="#3F3D56" fill-rule="nonzero" />
        <path transform="matrix(1 0 0 1 -174.73099 -79.58524)"  d="M842.759 711.0248C 838.9291 715.0348 834.9957 718.9481 830.95905 722.7648L830.95905 722.7648L734.749 722.7648L734.749 711.0248L842.759 711.0248z" stroke="none" fill="#FFFFFF" fill-rule="nonzero" />
        <path transform="matrix(1 0 0 1 -174.73099 -79.58524)"  d="M633.379 335.53476C 632.4109 333.74765 630.5415 332.63452 628.50903 332.63486L628.50903 332.63486L300.669 332.63486C 297.6088 332.64285 295.1315 335.12457 295.129 338.18478L295.129 338.18478L295.129 534.4049L634.0589 534.4049L634.0589 338.18478C 634.0642 337.25766 633.83 336.34485 633.379 335.53476z" stroke="none" fill="#3F3D56" fill-rule="nonzero" />
        <path transform="matrix(1 0 0 1 -174.73099 -79.58524)"  d="M294.83212 529.0924L294.83212 553.3062C 294.83212 555.3335 295.63745 557.2777 297.07095 558.71124C 298.50443 560.1448 300.4487 560.95013 302.47595 560.95013L302.47595 560.95013L427.57266 560.95013L427.57266 608.7367L425.91083 608.7367C 425.64746 608.7367 425.39487 608.8413 425.20865 609.02747C 425.02243 609.2137 424.9178 609.46625 424.91782 609.7296L424.91782 609.7296L424.91782 613.05334C 424.9178 613.3167 425.0224 613.5693 425.20862 613.7555C 425.39487 613.9417 425.64746 614.0463 425.91083 614.0463L425.91083 614.0463L503.5692 614.0463C 503.8326 614.0463 504.08517 613.9417 504.27142 613.7555C 504.45764 613.5693 504.56226 613.3167 504.56223 613.05334L504.56223 613.05334L504.56223 609.7296C 504.56226 609.46625 504.4576 609.2137 504.2714 609.02747C 504.08517 608.8413 503.83258 608.7367 503.5692 608.7367L503.5692 608.7367L501.90735 608.7367L501.90735 560.95013L627.0041 560.95013C 629.0314 560.9501 630.9756 560.1448 632.40906 558.71124C 633.8426 557.2777 634.6479 555.3335 634.6479 553.3062L634.6479 553.3062L634.6479 529.0924L294.83212 529.0924z" stroke="none" fill="#3F3D56" fill-rule="nonzero" />
        <path d="M317.20935 348.70374C 317.20935 340.05872 314.1529 332.67972 308.03992 326.56674C 301.92694 320.4538 294.54797 317.3973 285.90292 317.3973C 277.25793 317.3973 269.8789 320.4538 263.76593 326.56674C 257.65298 332.67972 254.5965 340.05872 254.5965 348.70374C 254.5965 357.34875 257.65298 364.72775 263.76593 370.84073C 269.8789 376.9537 277.25793 380.0102 285.90292 380.01016C 294.54797 380.0102 301.92694 376.9537 308.03992 370.84073C 314.1529 364.72775 317.20935 357.34875 317.20935 348.70374" stroke="none" fill="#6C63FF" fill-rule="nonzero" />
        <path transform="matrix(1 0 0 1 -174.73099 -79.58524)"  d="M540.399 252.58481L535.399 252.58481C 535.399 214.7848 497.98898 190.0148 460.249 189.99481C 454.7596 189.97878 449.28238 190.51141 443.899 191.58481C 437.839 192.79482 431.54898 194.24481 425.369 196.13481C 400.999 203.60481 378.399 218.04482 378.399 252.58481C 378.3938 259.2927 379.24744 265.97372 380.939 272.4648L380.939 272.4648L376.099 273.72482C 374.3038 266.82162 373.39648 259.71762 373.399 252.58482C 373.399 222.40482 385.789 201.67482 407.189 189.31482C 418.439 182.81482 432.169 178.62482 447.899 176.58482C 454.44482 175.71399 461.06235 175.51295 467.649 175.98482C 511.049 179.10477 540.399 212.3848 540.399 252.58481z" stroke="none" fill="#6C63FF" fill-rule="nonzero" />
        <path transform="matrix(1 0 0 1 -174.73099 -79.58524)"  d="M548.729 255.35477L546.75903 240.79477C 546.27313 237.1178 544.50195 233.73131 541.75903 231.23477C 538.1912 227.93707 533.30566 226.46219 528.50903 227.23477L528.50903 227.23477L525.379 227.66476C 523.6491 227.89247 522.0824 228.80367 521.02905 230.19476C 519.96674 231.5811 519.5023 233.33435 519.7391 235.06476L519.7391 235.06476L524.28906 268.60477C 524.67365 271.40823 526.80817 273.65155 529.58905 274.17477C 529.99066 274.25528 530.39935 274.29547 530.809 274.29477C 531.1034 274.2947 531.3974 274.27466 531.689 274.23477L531.689 274.23477L535.189 273.76477C 539.50195 273.19247 543.38763 270.86612 545.929 267.33478C 546.19904 266.95477 546.45905 266.5648 546.69904 266.16473C 548.5733 262.8927 549.2886 259.0839 548.729 255.35477z" stroke="none" fill="#6C63FF" fill-rule="nonzero" />
        <path transform="matrix(1 0 0 1 -174.73099 -79.58524)"  d="M523.359 228.27481C 522.441 228.72086 521.6423 229.37898 521.029 230.19481C 519.96674 231.58115 519.5023 233.3344 519.739 235.0648L519.739 235.0648L524.289 268.6048C 524.6735 271.40826 526.80804 273.65158 529.589 274.1748L529.589 274.1748L523.359 228.27481z" stroke="none" fill="#FFFFFF" fill-rule="nonzero" />
        <path transform="matrix(1 0 0 1 -174.73099 -79.58524)"  d="M548.729 255.35477L546.75903 240.79477C 546.27313 237.1178 544.50195 233.73131 541.75903 231.23477L541.75903 231.23477L546.28906 264.60477C 546.3569 265.14044 546.49475 265.66492 546.69904 266.16476C 548.5733 262.8927 549.2886 259.08386 548.729 255.35477z" stroke="none" fill="#3F3D56" fill-rule="nonzero" />
        <path transform="matrix(0.99092346 -0.13442706 0.13442706 0.99092346 -204.70468 -5.69071)"  d="M529.7183 258.909C 529.7183 255.043 530.8376 251.909 532.2183 251.909C 533.59906 251.909 534.7183 255.043 534.7183 258.909C 534.7183 262.775 533.59906 265.909 532.2183 265.909C 530.8376 265.909 529.7183 262.775 529.7183 258.909" stroke="none" fill="#3F3D56" fill-rule="nonzero" />
        <path transform="matrix(0.99092346 -0.13442706 0.13442706 0.99092346 -202.31223 -6.25736)"  d="M526.7183 240.90901C 526.7183 237.04301 527.8376 233.90901 529.2183 233.90901C 530.59906 233.90901 531.7183 237.04301 531.7183 240.90901C 531.7183 244.77501 530.59906 247.90901 529.2183 247.90901C 527.8376 247.90901 526.7183 244.77501 526.7183 240.90901" stroke="none" fill="#3F3D56" fill-rule="nonzero" />
        <path transform="matrix(0.99092346 -0.13442706 0.13442706 0.99092346 -203.08076 -3.63971)"  d="M545.7183 247.90901C 545.7183 244.04301 546.8376 240.90901 548.2183 240.90901C 549.59906 240.90901 550.7183 244.04301 550.7183 247.90901C 550.7183 251.77501 549.59906 254.90901 548.2183 254.90901C 546.8376 254.90901 545.7183 251.77501 545.7183 247.90901" stroke="none" fill="#3F3D56" fill-rule="nonzero" />
        <path transform="matrix(1 0 0 1 -174.73099 -79.58524)"  d="M460.249 189.99478C 454.7596 189.97874 449.28238 190.51138 443.899 191.58478C 437.839 192.79478 431.54898 194.24478 425.369 196.13478C 415.719 195.66478 408.619 193.16478 407.189 189.31477C 418.439 182.81477 432.169 178.62477 447.899 176.58478C 454.44482 175.71393 461.06235 175.5129 467.649 175.98477C 469.0593 176.81154 470.04907 178.2016 470.369 179.80478C 470.839 183.28482 466.869 186.98477 460.249 189.99478z" stroke="none" fill="#3F3D56" fill-rule="nonzero" />
        <path transform="matrix(1 0 0 1 -174.73099 -79.58524)"  d="M396.409 287.28482L388.70898 255.27483C 388.14755 252.9135 386.2238 251.11981 383.82898 250.72482C 383.4981 250.67332 383.16385 250.64659 382.82898 250.64482C 382.35727 250.64651 381.8874 250.70357 381.429 250.81482L381.429 250.81482L378.44897 251.53482C 370.46008 253.46696 365.54337 261.50195 367.45898 269.4948L367.45898 269.4948L370.909 283.8548C 371.6967 287.2355 373.5728 290.264 376.249 292.47485C 376.68268 292.82486 377.1368 293.14877 377.60898 293.44485C 380.99542 295.5673 385.09595 296.2309 388.97897 295.28485L388.97897 295.28485L391.94897 294.56485C 392.73428 294.3816 393.47314 294.03772 394.119 293.55484C 396.08328 292.12268 396.98788 289.64584 396.409 287.28482z" stroke="none" fill="#6C63FF" fill-rule="nonzero" />
        <path transform="matrix(0.97224545 -0.23396313 0.23396313 0.97224545 -228.45065 16.61926)"  d="M376.12897 274.52322C 376.12897 270.65723 377.24826 267.52322 378.62897 267.52322C 380.00967 267.52322 381.12897 270.65723 381.12897 274.52322C 381.12897 278.38922 380.00967 281.52322 378.62897 281.52322C 377.24826 281.52322 376.12897 278.38922 376.12897 274.52322" stroke="none" fill="#3F3D56" fill-rule="nonzero" />
        <path transform="matrix(0.97224545 -0.23396313 0.23396313 0.97224545 -229.43008 14.36289)"  d="M366.12897 277.52322C 366.12897 273.65723 367.24826 270.52322 368.62897 270.52322C 370.00967 270.52322 371.12897 273.65723 371.12897 277.52322C 371.12897 281.38922 370.00967 284.52322 368.62897 284.52322C 367.24826 284.52322 366.12897 281.38922 366.12897 277.52322" stroke="none" fill="#3F3D56" fill-rule="nonzero" />
        <path transform="matrix(1 0 0 1 -174.73099 -79.58524)"  d="M396.899 287.16476L389.19897 255.15477C 388.58557 252.60011 386.50128 250.66162 383.90897 250.23477L383.90897 250.23477L394.41898 293.95477C 396.5415 292.4003 397.52002 289.72125 396.899 287.16476z" stroke="none" fill="#FFFFFF" fill-rule="nonzero" />
        <path transform="matrix(1 0 0 1 -174.73099 -79.58524)"  d="M369.199 263.15482C 368.9865 262.26465 368.58774 261.42963 368.029 260.7048C 366.9466 263.508 366.74768 266.57526 367.45898 269.4948L367.45898 269.4948L370.909 283.8548C 371.6967 287.2355 373.5728 290.264 376.249 292.47485L376.249 292.47485L369.199 263.15482z" stroke="none" fill="#3F3D56" fill-rule="nonzero" />
	</g>
</g>
</svg>