<?xml version="1.0" standalone="no"?>
<!DOCTYPE svg PUBLIC "-//W3C//DTD SVG 1.0//EN" "http://www.w3.org/TR/2001/REC-SVG-20010904/DTD/svg10.dtd">
<svg xmlns="http://www.w3.org/2000/svg" xmlns:xlink="http://www.w3.org/1999/xlink" id="body_1" width="559" height="543">

<g transform="matrix(0.76952446 0 0 0.76952446 -0 0.1963499)">
    <path transform="matrix(1 0 0 1 -235.8247 -97.18208)"  d="M745.61755 799.9224C 744.8573 800.7224 744.06726 801.51245 743.26746 802.3024L743.26746 802.3024L652.04724 802.3024C 651.29724 801.5324 650.5575 800.74243 649.81726 799.9224C 649.7875 799.8924 649.7572 799.8524 649.7274 799.82245C 639.81726 788.84247 633.5775 772.8825 629.68744 756.0524C 629.43744 755.0324 629.2177 754.00244 628.9975 752.9624C 627.9775 748.2324 627.1474 743.4524 626.4677 738.7124C 626.3476 737.8924 626.2275 737.0724 626.1274 736.2524C 625.20746 729.4424 624.5874 722.7424 624.18744 716.45233C 624.13763 715.64233 624.08734 714.85236 624.03754 714.0623C 623.3049 701.53973 623.2982 688.98566 624.0175 676.46234C 624.0175 676.46234 624.13763 676.46234 624.3676 676.47235C 625.03754 676.5024 626.6474 676.5723 629.0175 676.71234C 635.5473 677.11237 647.8676 678.11237 662.35736 680.47235C 663.14734 680.60236 663.9477 680.7424 664.7475 680.8823C 677.00354 682.90735 689.093 685.8353 700.9174 689.64233C 701.65765 689.89233 702.38763 690.14233 703.12744 690.39233L703.12744 690.39233L703.1377 690.4423L712.2075 735.95233L715.9678 695.4423C 718.9575 696.7923 721.8677 698.2323 724.6577 699.77234C 725.4375 700.20233 726.1977 700.6324 726.9477 701.0723C 733.326 704.6866 739.11584 709.2524 744.1176 714.6123C 773.86755 747.5824 767.49744 777.0524 745.61755 799.9224z" stroke="none" fill="#F2F2F2" fill-rule="nonzero" />
    <path transform="matrix(1 0 0 1 -235.8247 -97.18208)"  d="M707.49695 742.2145L709.0784 743.9664C 727.3578 764.4246 738.2667 783.414 741.6276 800.6856C 741.68097 800.9365 741.71783 801.1866 741.7712 801.4375L741.7712 801.4375L740.6017 801.659L739.4747 801.8578C 736.0445 783.02734 723.2737 763.56226 707.33453 745.7138C 706.8265 745.13354 706.31055 744.5446 705.77734 743.9714C 698.9632 736.4754 691.6372 729.28406 684.2294 722.5601C 683.6606 722.03467 683.0753 721.50836 682.49005 720.9821C 672.66644 712.15753 662.78326 704.1737 653.96936 697.44403C 653.3485 696.9655 652.71906 696.49493 652.09735 696.03296C 637.132 684.7036 625.52045 677.194 622.93243 675.5477C 622.6204 675.3415 622.4439 675.2332 622.40393 675.20636L622.40393 675.20636L623.0165 674.22833L623.01733 674.2118L623.63855 673.22595C 623.6785 673.25287 624.2723 673.61414 625.34503 674.3143C 629.3735 676.911 640.2012 684.0579 653.67096 694.2189C 654.2761 694.68 654.90564 695.1507 655.5264 695.62915C 662.6848 701.0829 670.51404 707.332 678.4206 714.1723C 680.4094 715.8872 682.34875 717.5996 684.23846 719.3093C 684.83234 719.8278 685.41766 720.35406 685.98645 720.8795C 693.9953 728.14716 701.16547 735.2588 707.49695 742.2145z" stroke="none" fill="#FFFFFF" fill-rule="nonzero" />
    <path transform="matrix(1 0 0 1 -235.8247 -97.18208)"  d="M663.21765 678.5324C 662.94763 679.18243 662.6576 679.8324 662.3573 680.4724C 660.0732 685.41534 657.15173 690.03796 653.66736 694.2224C 653.1576 694.8224 652.6376 695.43243 652.09753 696.0324C 650.6376 697.6424 649.0842 699.1991 647.4374 700.7024C 640.69977 706.80164 632.71484 711.3606 624.0375 714.0624C 623.7572 714.1524 623.4877 714.2424 623.2074 714.3224C 623.2572 715.11237 623.3075 715.8924 623.3573 716.7024C 623.6376 716.6224 623.9076 716.5424 624.1874 716.4524C 633.3946 713.67645 641.8692 708.8875 648.99744 702.4324C 650.7406 700.8574 652.39966 699.1918 653.96765 697.4424C 654.5072 696.85236 655.0277 696.2424 655.5277 695.6324C 659.25366 691.15515 662.3552 686.1933 664.74744 680.8824C 665.0277 680.2424 665.30743 679.60236 665.5775 678.95233C 664.7777 678.81244 663.9877 678.6724 663.21765 678.5324z" stroke="none" fill="#FFFFFF" fill-rule="nonzero" />
    <path transform="matrix(1 0 0 1 -235.8247 -97.18208)"  d="M701.3275 687.87244C 701.2074 688.46246 701.06726 689.0524 700.91736 689.64246C 698.20624 700.88385 692.4326 711.15393 684.2377 719.31244C 683.66736 719.88245 683.0873 720.44244 682.4877 720.9824C 682.31726 721.1524 682.1273 721.3324 681.9477 721.49243C 666.8214 735.1476 646.0262 740.64624 626.1274 736.25244C 625.8974 736.21246 625.65765 736.15247 625.4277 736.1024C 625.5473 736.9224 625.65765 737.75244 625.78754 738.5724C 626.0175 738.62244 626.23773 738.67236 626.4677 738.7124C 646.86285 742.932 668.04803 737.17883 683.50726 723.2224C 683.7475 723.00244 683.9975 722.7924 684.2275 722.56244C 684.8276 722.00244 685.40765 721.44244 685.98773 720.88245C 694.37415 712.4903 700.3049 701.9636 703.13763 690.44244C 703.28754 689.8424 703.4275 689.24243 703.55756 688.64246C 702.81726 688.38245 702.0775 688.12244 701.3275 687.87244z" stroke="none" fill="#FFFFFF" fill-rule="nonzero" />
    <path transform="matrix(1 0 0 1 -235.8247 -97.18208)"  d="M724.6576 698.0824C 724.66736 698.6424 724.66736 699.2124 724.6576 699.7724C 724.49054 715.5762 718.3617 730.73395 707.49744 742.2124C 706.9374 742.8124 706.3573 743.3924 705.7777 743.9724C 705.14734 744.5824 704.51746 745.1924 703.86755 745.7724C 683.21375 764.3871 652.81635 767.3063 628.99744 752.9624C 628.7985 752.85876 628.6049 752.7453 628.41736 752.6224C 628.6576 753.6824 628.89734 754.72235 629.1576 755.7623C 629.3373 755.8623 629.5072 755.96234 629.6874 756.0523C 654.1619 769.699 684.6063 766.2663 705.4276 747.5123C 706.0775 746.9223 706.7274 746.33234 707.3373 745.71234C 707.9374 745.14233 708.5072 744.5623 709.0775 743.96234C 720.09503 732.3426 726.45526 717.07733 726.94763 701.0723C 726.96765 700.53235 726.9776 699.9923 726.9774 699.45233C 726.21765 698.9824 725.4374 698.5324 724.6576 698.0824z" stroke="none" fill="#FFFFFF" fill-rule="nonzero" />
    <path transform="matrix(1 0 0 1 -235.8247 -97.18208)"  d="M522.4922 262.76025L346.70654 262.76025C 343.66068 262.75687 341.19235 260.28854 341.18896 257.24268L341.18896 257.24268L341.18896 123.76758C 341.19232 120.72162 343.66058 118.253136 346.70654 118.24951L346.70654 118.24951L562.4746 118.24951C 565.52057 118.253136 567.98883 120.72162 567.9922 123.76758L567.9922 123.76758L567.9922 217.26025C 567.96387 242.37746 547.6094 262.7319 522.4922 262.76025z" stroke="none" fill="#FFFFFF" fill-rule="nonzero" />
    <path transform="matrix(1 0 0 1 -235.8247 -97.18208)"  d="M522.4922 263.26025L346.70654 263.26025C 343.38477 263.25635 340.69287 260.56445 340.68896 257.24268L340.68896 257.24268L340.68896 123.76758C 340.6927 120.44562 343.3846 117.753494 346.70654 117.74951L346.70654 117.74951L562.4746 117.74951C 565.79663 117.75332 568.48865 120.44555 568.4922 123.76758L568.4922 123.76758L568.4922 217.26025C 568.4633 242.65338 547.8853 263.23138 522.4922 263.26025zM346.70654 119.74951C 344.48865 119.75223 342.69144 121.54967 342.68896 123.76758L342.68896 123.76758L342.68896 257.24268C 342.69144 259.4605 344.4887 261.25778 346.70654 261.26025L346.70654 261.26025L522.4922 261.26025C 546.7814 261.23282 566.4648 241.54941 566.4922 217.26025L566.4922 217.26025L566.4922 123.76758C 566.48975 121.54967 564.6925 119.75223 562.4746 119.74951z" stroke="none" fill="#CCCCCC" fill-rule="nonzero" />
    <path transform="matrix(1 0 0 1 -235.8247 -97.18208)"  d="M519.82275 163.32654L389.3584 163.32654C 386.86423 163.32654 384.84232 161.30461 384.84232 158.81046C 384.84232 156.3163 386.86423 154.29437 389.3584 154.29439L389.3584 154.29439L519.82275 154.29439C 522.31433 154.29803 524.3322 156.31888 524.3322 158.81046C 524.3322 161.30203 522.31433 163.32288 519.82275 163.32654z" stroke="none" fill="#CCCCCC" fill-rule="nonzero" />
    <path transform="matrix(1 0 0 1 -235.8247 -97.18208)"  d="M519.82275 194.43727L389.3584 194.43727C 386.86606 194.4347 384.847 192.41353 384.847 189.9212C 384.847 187.42888 386.86606 185.40771 389.3584 185.40514L389.3584 185.40514L519.82275 185.40514C 521.4373 185.40346 522.92993 186.26385 523.73773 187.66182C 524.5455 189.05978 524.5455 190.78262 523.73773 192.18059C 522.92993 193.57855 521.4373 194.43895 519.82275 194.43727z" stroke="none" fill="#CCCCCC" fill-rule="nonzero" />
    <path transform="matrix(1 0 0 1 -235.8247 -97.18208)"  d="M519.82275 226.43727L389.3584 226.43727C 386.86606 226.4347 384.847 224.41353 384.847 221.9212C 384.847 219.42888 386.86606 217.40771 389.3584 217.40514L389.3584 217.40514L519.82275 217.40514C 521.4373 217.40346 522.92993 218.26385 523.73773 219.66182C 524.5455 221.05978 524.5455 222.78262 523.73773 224.18059C 522.92993 225.57855 521.4373 226.43895 519.82275 226.43727z" stroke="none" fill="#CCCCCC" fill-rule="nonzero" />
    <path d="M351.99844 26.9685C 351.99844 19.52135 349.36548 13.164813 344.09955 7.898884C 338.83362 2.6329548 332.47708 -9.536743E-06 325.02994 -9.536743E-06C 317.5828 -9.536743E-06 311.22626 2.6329548 305.96033 7.898884C 300.6944 13.164813 298.06143 19.52135 298.06143 26.9685C 298.06143 34.41565 300.6944 40.772186 305.96033 46.038116C 311.22626 51.304047 317.5828 53.93701 325.02994 53.93701C 332.47708 53.93701 338.83362 51.304047 344.09955 46.038116C 349.36548 40.772186 351.99844 34.41565 351.99844 26.9685" stroke="none" fill="#6C63FF" fill-rule="nonzero" />
    <path transform="matrix(1 0 0 1 -235.8247 -97.18208)"  d="M557.1756 138.18645C 556.2314 138.18646 555.3423 137.74178 554.77594 136.98625L554.77594 136.98625L547.4185 127.1762C 546.7755 126.3188 546.6388 125.18349 547.0598 124.19792C 547.48083 123.21236 548.3956 122.526276 549.4597 122.39812C 550.52374 122.26996 551.5753 122.71919 552.2183 123.57659L552.2183 123.57659L557.0318 129.99406L569.3946 111.45012C 569.98914 110.55835 571.0142 110.05149 572.08374 110.12047C 573.1533 110.189445 574.1048 110.823784 574.57983 111.78453C 575.0549 112.745285 574.9813 113.88648 574.3868 114.77825L574.3868 114.77825L559.67194 136.8505C 559.13184 137.66054 558.2323 138.15823 557.2591 138.1855C 557.23126 138.186 557.2034 138.18645 557.1756 138.18645z" stroke="none" fill="#FFFFFF" fill-rule="nonzero" />
    <path transform="matrix(1 0 0 1 -235.8247 -97.18208)"  d="M457.61035 378.68945L281.8247 378.68945C 256.7075 378.6611 236.35304 358.30667 236.3247 333.18945L236.3247 333.18945L236.3247 239.69629C 236.32828 236.65022 238.7967 234.1818 241.84277 234.17822L241.84277 234.17822L457.61035 234.17822C 460.6564 234.18181 463.12485 236.65024 463.12842 239.69629L463.12842 239.69629L463.12842 373.1714C 463.12482 376.21744 460.6564 378.68585 457.61035 378.68945z" stroke="none" fill="#FFFFFF" fill-rule="nonzero" />
    <path transform="matrix(1 0 0 1 -235.8247 -97.18208)"  d="M457.61035 379.18945L281.8247 379.18945C 256.43158 379.16058 235.85358 358.58258 235.8247 333.18945L235.8247 333.18945L235.8247 239.69629C 235.82848 236.37418 238.52066 233.68199 241.84277 233.67822L241.84277 233.67822L457.61035 233.67822C 460.93246 233.68199 463.62466 236.37416 463.62842 239.69629L463.62842 239.69629L463.62842 373.1714C 463.62463 376.4935 460.93246 379.18567 457.61035 379.18945zM241.84277 235.67822C 239.62477 235.6809 237.82738 237.47829 237.8247 239.69629L237.8247 239.69629L237.8247 333.18945C 237.85213 357.47864 257.53552 377.16202 281.8247 377.18945L281.8247 377.18945L457.61035 377.18945C 459.82843 377.18695 461.62592 375.38947 461.62842 373.1714L461.62842 373.1714L461.62842 239.69629C 461.62573 237.47829 459.82837 235.68091 457.61035 235.67822z" stroke="none" fill="#CCCCCC" fill-rule="nonzero" />
    <path transform="matrix(1 0 0 1 -235.8247 -97.18208)"  d="M414.95874 279.25534L284.4944 279.25534C 282.87985 279.257 281.3872 278.3966 280.57947 276.99866C 279.7717 275.60068 279.7717 273.87784 280.57947 272.47986C 281.38724 271.0819 282.87985 270.22153 284.4944 270.2232L284.4944 270.2232L414.95874 270.2232C 416.57327 270.22153 418.06592 271.0819 418.87366 272.47986C 419.68143 273.87784 419.68143 275.60068 418.87366 276.99866C 418.0659 278.3966 416.57327 279.257 414.95874 279.25534z" stroke="none" fill="#CCCCCC" fill-rule="nonzero" />
    <path transform="matrix(1 0 0 1 -235.8247 -97.18208)"  d="M414.95874 310.36606L284.4944 310.36606C 282.00204 310.36346 279.98297 308.34232 279.98297 305.84998C 279.98297 303.35764 282.00204 301.3365 284.4944 301.33392L284.4944 301.33392L414.95874 301.33392C 416.57217 301.33392 418.06305 302.19467 418.86978 303.59198C 419.6765 304.98926 419.6765 306.71075 418.86978 308.10806C 418.06305 309.50534 416.57217 310.3661 414.95874 310.3661L414.95874 310.3661L414.95874 310.36606z" stroke="none" fill="#CCCCCC" fill-rule="nonzero" />
    <path transform="matrix(1 0 0 1 -235.8247 -97.18208)"  d="M414.95874 342.36606L284.4944 342.36606C 282.00204 342.36346 279.98297 340.34232 279.98297 337.84998C 279.98297 335.35764 282.00204 333.3365 284.4944 333.33392L284.4944 333.33392L414.95874 333.33392C 416.57217 333.33392 418.06305 334.19467 418.86978 335.59198C 419.6765 336.98926 419.6765 338.71075 418.86978 340.10806C 418.06305 341.50534 416.57217 342.3661 414.95874 342.3661L414.95874 342.3661L414.95874 342.36606z" stroke="none" fill="#CCCCCC" fill-rule="nonzero" />
    <path d="M248.99844 143.9685C 248.99844 136.52136 246.36548 130.16483 241.09955 124.89889C 235.83362 119.632965 229.47708 117 222.02994 117C 214.5828 117 208.22626 119.632965 202.96033 124.89889C 197.6944 130.16483 195.06143 136.52136 195.06143 143.9685C 195.06143 151.41565 197.6944 157.77219 202.96033 163.03812C 208.22626 168.30405 214.5828 170.93701 222.02994 170.93701C 229.47708 170.93701 235.83362 168.30405 241.09955 163.03812C 246.36548 157.77219 248.99844 151.41565 248.99844 143.9685" stroke="none" fill="#6C63FF" fill-rule="nonzero" />
    <path transform="matrix(1 0 0 1 -235.8247 -97.18208)"  d="M454.1756 255.18645C 453.23138 255.18646 452.3423 254.74178 451.77594 253.98625L451.77594 253.98625L444.41852 244.17621C 443.7755 243.3188 443.63876 242.18349 444.05978 241.19794C 444.48083 240.21237 445.39566 239.52629 446.4597 239.39813C 447.52374 239.26996 448.57532 239.7192 449.21832 240.5766L449.21832 240.5766L454.0318 246.99408L466.3946 228.45013C 467.31363 227.07158 469.1762 226.69907 470.55475 227.6181C 471.9333 228.53714 472.30582 230.3997 471.38678 231.77826L471.38678 231.77826L456.6719 253.8505C 456.13177 254.66054 455.23227 255.15823 454.25906 255.1855C 454.23126 255.186 454.20343 255.18645 454.1756 255.18645z" stroke="none" fill="#FFFFFF" fill-rule="nonzero" />
    <path transform="matrix(1 0 0 1 -235.8247 -97.18208)"  d="M676.63477 503.10254L430.6709 503.10254C 405.55368 503.0742 385.19925 482.71976 385.1709 457.60254L385.1709 457.60254L385.1709 320.08887C 385.1754 316.16248 388.3573 312.9806 392.2837 312.97607L392.2837 312.97607L676.63477 312.97607C 680.5611 312.98065 683.74274 316.16257 683.7471 320.08887L683.7471 320.08887L683.7471 495.98926C 683.74286 499.91565 680.5612 503.09775 676.63477 503.10254z" stroke="none" fill="#FFFFFF" fill-rule="nonzero" />
    <path transform="matrix(1 0 0 1 -235.8247 -97.18208)"  d="M676.63477 503.60254L430.6709 503.60254C 405.27777 503.57367 384.69977 482.99567 384.6709 457.60254L384.6709 457.60254L384.6709 320.08887C 384.67563 315.8864 388.08124 312.4808 392.2837 312.47607L392.2837 312.47607L676.63477 312.47607C 680.8371 312.48102 684.24243 315.88657 684.2471 320.08887L684.2471 320.08887L684.2471 495.98926C 684.2426 500.1917 680.8373 503.59753 676.63477 503.60254zM392.2837 314.47607C 389.18533 314.4797 386.67453 316.9905 386.6709 320.08887L386.6709 320.08887L386.6709 457.60254C 386.69833 481.89172 406.3817 501.5751 430.6709 501.60254L430.6709 501.60254L676.63477 501.60254C 679.7331 501.59863 682.2437 499.08762 682.2471 495.98926L682.2471 495.98926L682.2471 320.08887C 682.24365 316.9906 679.733 314.47977 676.63477 314.47607z" stroke="none" fill="#CCCCCC" fill-rule="nonzero" />
    <path transform="matrix(1 0 0 1 -235.8247 -97.18208)"  d="M620.4257 372.22183L448.4925 372.22183C 446.3651 372.22348 444.39862 371.08948 443.33447 369.24738C 442.2703 367.4053 442.2703 365.13528 443.33447 363.29318C 444.39862 361.4511 446.3651 360.3171 448.4925 360.31876L448.4925 360.31876L620.4257 360.31876C 622.5531 360.3171 624.51953 361.4511 625.58374 363.2932C 626.6479 365.13528 626.6479 367.4053 625.58374 369.2474C 624.51953 371.08948 622.5531 372.22348 620.4257 372.22183z" stroke="none" fill="#CCCCCC" fill-rule="nonzero" />
    <path transform="matrix(1 0 0 1 -235.8247 -97.18208)"  d="M620.4257 413.2213L448.4925 413.2213C 446.3651 413.22296 444.39862 412.08896 443.33447 410.24686C 442.2703 408.4048 442.2703 406.13477 443.33447 404.29266C 444.39862 402.4506 446.3651 401.3166 448.4925 401.31824L448.4925 401.31824L620.4257 401.31824C 622.552 401.31824 624.5168 402.4526 625.5799 404.294C 626.64307 406.1354 626.64307 408.40414 625.5799 410.24554C 624.5168 412.08694 622.552 413.2213 620.4257 413.2213z" stroke="none" fill="#CCCCCC" fill-rule="nonzero" />
    <path transform="matrix(1 0 0 1 -235.8247 -97.18208)"  d="M620.4257 455.39267L448.4925 455.39267C 446.3662 455.39267 444.40146 454.2583 443.33832 452.4169C 442.27518 450.5755 442.27518 448.30676 443.33832 446.46536C 444.40146 444.62396 446.3662 443.4896 448.4925 443.4896L448.4925 443.4896L620.4257 443.4896C 622.5531 443.48795 624.51953 444.62195 625.58374 446.46405C 626.6479 448.30612 626.6479 450.57614 625.58374 452.41824C 624.51953 454.2603 622.5531 455.39432 620.4257 455.39267z" stroke="none" fill="#CCCCCC" fill-rule="nonzero" />
    <path d="M475.84216 226.5592C 475.84216 217.13202 472.50916 209.08542 465.8431 202.4194C 459.1771 195.75339 451.1305 192.42036 441.7033 192.42036C 432.27612 192.42036 424.22952 195.75339 417.5635 202.4194C 410.8975 209.08542 407.56448 217.13202 407.56445 226.5592C 407.56448 235.98639 410.8975 244.03299 417.5635 250.699C 424.22952 257.36505 432.27612 260.69806 441.7033 260.69806C 451.1305 260.69806 459.1771 257.36505 465.8431 250.699C 472.50916 244.03299 475.84216 235.98639 475.84216 226.5592" stroke="none" fill="#6C63FF" fill-rule="nonzero" />
    <path transform="matrix(1 0 0 1 -235.8247 -97.18208)"  d="M672.8708 341.509C 671.6755 341.509 670.55 340.9461 669.8331 339.98972L669.8331 339.98972L660.51953 327.57138C 659.7055 326.486 659.5324 325.04883 660.0654 323.8012C 660.5984 322.55362 661.7565 321.68512 663.1034 321.5229C 664.4503 321.36066 665.7815 321.92932 666.5955 323.0147L666.5955 323.0147L672.6888 331.13846L688.33856 307.664C 689.50195 305.9189 691.8597 305.44736 693.6048 306.61075C 695.3499 307.77414 695.8214 310.13193 694.6581 311.877L694.6581 311.877L676.0309 339.8178C 675.3471 340.84323 674.20844 341.47324 672.9765 341.50772C 672.9412 341.50833 672.906 341.509 672.8708 341.509z" stroke="none" fill="#FFFFFF" fill-rule="nonzero" />
    <path d="M530.145 677.866L516.256 682.511L491.729 631.148L512.229 624.292L530.145 677.866L530.145 677.866" stroke="none" fill="#FFB6B6" fill-rule="nonzero" />
    <path transform="matrix(1 0 0 1 -235.8247 -97.18208)"  d="M774.0151 787.3266L729.22974 799.3042L729.0403 798.73773C 727.4832 794.08154 727.8323 792.09717 730.024 787.70386C 732.18884 783.3335 736.0121 780.01074 740.64154 778.4762L740.64154 778.4762L740.64264 778.4758L746.7474 769.5335L764.08655 770.63556L767.99603 769.3281L774.0151 787.3266z" stroke="none" fill="#2F2E41" fill-rule="nonzero" />
    <path d="M564.461 690.925L549.816 690.925L542.848 634.435L564.464 634.436L564.461 690.925L564.461 690.925" stroke="none" fill="#FFB6B6" fill-rule="nonzero" />
    <path transform="matrix(1 0 0 1 -235.8247 -97.18208)"  d="M804.02075 799.3042L756.79724 799.3024L756.79724 798.70514C 756.79755 793.7955 758.7096 792.17926 762.1817 788.708C 765.62103 785.25 770.3008 783.3116 775.1779 783.3247L775.1779 783.3247L775.1791 783.3247L783.80505 776.7806L799.89923 783.3257L804.02155 783.32587L804.02075 799.3042z" stroke="none" fill="#2F2E41" fill-rule="nonzero" />
    <path transform="matrix(1 0 0 1 -235.8247 -97.18208)"  d="M688.824 335.49808C 689.43445 338.60416 691.3894 341.2803 694.1628 342.8064C 696.9361 344.33252 700.243 344.5518 703.1936 343.40527L703.1936 343.40527L720.10126 361.0572L733.3342 353.39877L709.1073 328.8062C 706.8021 323.86862 701.16815 321.43558 695.99335 323.14285C 690.8185 324.85013 687.73846 330.1581 688.824 335.49808z" stroke="none" fill="#FFB6B6" fill-rule="nonzero" />
    <path d="M562.421 327.072L570.043 319.186L525.965 278.363L481.602 238.751L469.315 256.113L515.804 299.507L562.421 327.072L562.421 327.072" stroke="none" fill="#E4E4E4" fill-rule="nonzero" />
    <path transform="matrix(1 0 0 1 -235.8247 -97.18208)"  d="M771.16254 692.15576C 771.16254 682.2452 771.35876 675.1764 771.51624 669.49603C 771.97736 652.87256 772.10126 648.4043 765.73987 619.7772L765.73987 619.7772L764.10596 612.4255L754.4713 641.32916C 751.394 650.5493 749.82153 660.20483 749.8142 669.925L749.8142 669.925L764.6697 759.0569L734.3073 759.0569L712.0702 662.6966L712.05975 633.2214C 707.98706 629.0071 707.98706 622.32324 712.05975 618.109L712.05975 618.109L719.44763 573.9503L726.9255 514.43713L808.83264 514.43713C 808.83264 514.43713 823.2879 544.3989 808.92267 574.11945L808.92267 574.11945L808.9211 692.1927L801.49915 773.8325L778.58606 773.8325L771.16254 692.15576z" stroke="none" fill="#2F2E41" fill-rule="nonzero" />
    <path transform="matrix(1 0 0 1 -235.8247 -97.18208)"  d="M803.8249 521.64056L727.2119 515.25635L726.8141 515.2235L732.92816 405.1698C 733.6636 391.0114 742.95917 378.73312 756.38696 374.1839L756.38696 374.1839L756.38696 366.4822C 756.3914 362.51312 759.60785 359.29675 763.57697 359.29236L763.57697 359.29236L774.771 359.29236C 777.49695 359.2832 779.991 360.8246 781.2019 363.26685L781.2019 363.26685L786.67566 374.21432L807.3742 390.77325C 817.5972 398.9519 809.36926 480.94968 808.92694 485.2761L808.92694 485.2761L813.9329 510.3071C 814.4902 513.09515 813.77 515.98627 811.97015 518.1872C 810.1702 520.3882 807.4796 521.66785 804.6364 521.6751C 804.36743 521.67426 804.0969 521.6627 803.8249 521.64056z" stroke="none" fill="#E4E4E4" fill-rule="nonzero" />
    <path transform="matrix(1 0 0 1 -235.8247 -97.18208)"  d="M722.6923 550.69885C 725.1442 548.69666 726.5833 545.71124 726.62244 542.54596C 726.6615 539.3807 725.2965 536.36066 722.8948 534.2986L722.8948 534.2986L730.49603 511.0676L717.50525 503.00513L707.2316 535.9625C 703.9631 540.3226 704.47217 546.43823 708.4166 550.1978C 712.3611 553.95746 718.4941 554.17267 722.6924 550.69885L722.6924 550.69885L722.6923 550.69885z" stroke="none" fill="#FFB6B6" fill-rule="nonzero" />
    <path d="M513.585 295.588L503.038 292.072L487.804 360.04L473.773 427.634L494.876 430.739L511.241 358.868L513.585 295.588L513.585 295.588" stroke="none" fill="#E4E4E4" fill-rule="nonzero" />
    <path d="M550.26514 229.9136C 550.26514 222.96527 547.8086 217.0345 542.8953 212.12128C 537.9822 207.20807 532.0514 204.75146 525.103 204.75146C 518.1547 204.75146 512.22394 207.20807 507.3107 212.12128C 502.39752 217.0345 499.94092 222.96527 499.9409 229.9136C 499.94092 236.86194 502.39752 242.79272 507.3107 247.70593C 512.22394 252.61916 518.1547 255.07576 525.103 255.07574C 532.0514 255.07576 537.9822 252.61916 542.8953 247.70593C 547.8086 242.79272 550.26514 236.86194 550.26514 229.9136" stroke="none" fill="#FFB6B6" fill-rule="nonzero" />
    <path transform="matrix(1 0 0 1 -235.8247 -97.18208)"  d="M727.072 314.7733C 727.30396 312.38864 727.9873 310.06985 729.0857 307.94055C 730.2621 310.4984 733.93115 310.94223 736.44226 309.66916C 738.9538 308.39606 740.6364 305.97815 742.43085 303.80887C 747.1665 298.08466 753.67896 293.4414 761.0596 292.5957C 768.44055 291.75003 776.576 295.4757 779.36487 302.36154C 780.6162 300.62384 783.28644 300.43066 785.1751 301.44043C 786.9995 302.59082 788.4233 304.27753 789.25104 306.2692C 793.0062 313.97394 793.3771 322.8959 790.2743 330.8857C 787.1664 338.75043 779.4915 349.34665 771.573 352.31494C 766.7656 354.11707 761.9101 351.81052 756.7973 352.31494C 757.06506 346.73514 758.14685 339.85046 758.4146 334.27066C 758.56134 331.2149 758.58264 327.79608 756.4955 325.55927C 755.1993 324.3288 753.42377 323.7372 751.64856 323.94443C 749.8734 324.15167 748.28186 325.13626 747.30396 326.6322C 747.0455 324.8973 746.45966 323.22736 745.57764 321.7112C 744.65454 320.17764 742.9417 319.3002 741.15784 319.447C 739.0231 319.79688 737.7044 321.98828 735.74524 322.906C 733.46674 323.8192 730.8608 323.22156 729.20795 321.40677C 727.6233 319.5782 726.85205 317.18292 727.072 314.7733z" stroke="none" fill="#2F2E41" fill-rule="nonzero" />
    <path d="M528.36 358.563L498.809 417.665L520.973 417.665L528.36 358.563L528.36 358.563" stroke="none" fill="#000000" fill-rule="nonzero" fill-opacity="0.09803922" />
    <path transform="matrix(1 0 0 1 -235.8247 -97.18208)"  d="M962.24744 801.1124C 962.2485 801.42834 962.1234 801.73157 961.9 801.95496C 961.67664 802.17834 961.3734 802.3034 961.05743 802.3024L961.05743 802.3024L396.76746 802.3024C 396.11023 802.3024 395.57745 801.76965 395.57745 801.1124C 395.57745 800.4552 396.11023 799.9224 396.76746 799.9224L396.76746 799.9224L961.05743 799.9224C 961.37335 799.9215 961.67664 800.0466 961.89996 800.26996C 962.12335 800.4933 962.2484 800.7966 962.24744 801.1124z" stroke="none" fill="#CACACA" fill-rule="nonzero" />
</g>
</svg>